<svg xmlns="http://www.w3.org/2000/svg" viewBox="0 0 200 200"><defs><style>.cls-1{fill:#423c39;}.cls-2{fill:#fff;}</style></defs><title>Fichier 3</title><g id="Calque_2" data-name="Calque 2"><g id="Calque_1-2" data-name="Calque 1"><path class="cls-1" d="M166.58,19.77H127.93l54.7,54.7V35.82A16.09,16.09,0,0,0,166.58,19.77Zm-2.72,10.32a4.42,4.42,0,0,1,5.8-.93L164,36A4.56,4.56,0,0,1,163.86,30.09Zm6.85,5.82a4.44,4.44,0,0,1-5.8.93l5.7-6.87A4.57,4.57,0,0,1,170.71,35.91Z"/><path class="cls-2" d="M170.71,35.91a4.44,4.44,0,0,1-5.8.93l5.7-6.87A4.57,4.57,0,0,1,170.71,35.91Z"/><path class="cls-2" d="M169.66,29.16,164,36a4.56,4.56,0,0,1-.1-5.94A4.42,4.42,0,0,1,169.66,29.16Z"/><path class="cls-1" d="M17.36,125.53v38.66a16.09,16.09,0,0,0,16,16H72.06ZM28.13,163.4a4.44,4.44,0,0,1,5.8-.93l-5.69,6.88A4.58,4.58,0,0,1,28.13,163.4Zm1.06,6.75,5.69-6.87a4.56,4.56,0,0,1,.1,5.94A4.42,4.42,0,0,1,29.19,170.15Z"/><path class="cls-2" d="M33.93,162.47l-5.69,6.88a4.58,4.58,0,0,1-.11-5.95A4.44,4.44,0,0,1,33.93,162.47Z"/><path class="cls-2" d="M35,169.22a4.42,4.42,0,0,1-5.79.93l5.69-6.87A4.56,4.56,0,0,1,35,169.22Z"/><path class="cls-1" d="M33.4,19.77a16.09,16.09,0,0,0-16,16.05V77.56L75.15,19.77ZM28.13,35.91A4.59,4.59,0,0,1,28.24,30l5.69,6.87A4.44,4.44,0,0,1,28.13,35.91Zm1.06-6.75a4.42,4.42,0,0,1,5.79.93,4.59,4.59,0,0,1-.1,5.94Z"/><path class="cls-2" d="M34.88,36l-5.69-6.87a4.42,4.42,0,0,1,5.79.93A4.59,4.59,0,0,1,34.88,36Z"/><path class="cls-2" d="M33.93,36.83a4.44,4.44,0,0,1-5.8-.92A4.59,4.59,0,0,1,28.24,30Z"/><path class="cls-1" d="M124.84,180.23h41.74a16.09,16.09,0,0,0,16-16V122.43Zm39-11a4.57,4.57,0,0,1,.1-5.94l5.7,6.87A4.43,4.43,0,0,1,163.86,169.22Zm6.74.12-5.69-6.87a4.45,4.45,0,0,1,5.8.93A4.57,4.57,0,0,1,170.6,169.34Z"/><path class="cls-2" d="M170.6,169.34l-5.69-6.87a4.45,4.45,0,0,1,5.8.93A4.57,4.57,0,0,1,170.6,169.34Z"/><path class="cls-2" d="M169.66,170.15a4.43,4.43,0,0,1-5.8-.93,4.57,4.57,0,0,1,.1-5.94Z"/><path class="cls-1" d="M195.33,109.73l-12.7,12.7v-3.84l10.78-10.79a13.23,13.23,0,0,0,0-18.7L182.63,78.32V74.47l12.7,12.7A16,16,0,0,1,195.33,109.73Z"/><path class="cls-1" d="M6.58,92.2a13.25,13.25,0,0,0,0,18.7l10.78,10.78v3.85L4.65,112.83a16,16,0,0,1,0-22.56L17.36,77.56v3.86Z"/><path class="cls-1" d="M75,127.54a2.41,2.41,0,0,1-.13.85,1.37,1.37,0,0,1-.31.48.82.82,0,0,1-.37.21,1.48,1.48,0,0,1-.32,0H71.69v-2.86H74a1.32,1.32,0,0,1,.31,0,.92.92,0,0,1,.33.19.84.84,0,0,1,.25.38A1.49,1.49,0,0,1,75,127.54Z"/><polygon class="cls-1" points="149.11 130 146.97 130 148.04 126.97 149.11 130"/><path class="cls-1" d="M124.09,19.77H79L17.36,81.42v40.26l58.55,58.55H121l61.64-61.64V78.32Zm12.46,53.16h22.72V83.42H146.89v3.25h10.84v9.7H146.89V99.8h12.38v10.43H136.55Zm-20.14,30.16h-.24l-5.5-11.94v19.08h-9.9V72.85h10.67l4.85,12.21,4.89-12.21h10.66v37.38H122V91.15Zm-5.15-54h14.17V54h-7.72v1.53h6.76v4.52h-6.76v1.6h7.72v4.86H111.26Zm-20.37,0h6.58v6.26h4.27V49.11h6.58v17.4h-6.58V60.05H97.47v6.46H90.89Zm-18.1,0H89.17v5H84.29V66.51H77.66V54.08H72.79Zm3.88,23.77H89.33L99,110.11H88.35L87.09,104H78.94l-1.22,6.09H67.06Zm-21.6-.18a26.06,26.06,0,0,1,9.77,1.74L63.5,84.57a16.65,16.65,0,0,0-6.36-1.3c-5.41,0-7.4,3.43-7.4,8.65,0,5.83,3.13,8.44,6.06,8.44a5.58,5.58,0,0,0,1-.1V89.8H66v18.35a21.68,21.68,0,0,1-11.44,2.78c-8.92,0-15.63-6.91-15.63-19C39,80.06,45.66,72.7,55.07,72.7Zm-17,44.58,121.64-1.49v3l-121.64-.93Zm5.55,9H39.7V128h3.75v1.76H39.7v1.45h3.9V133H38v-8.45H43.6Zm7.67,5.09a2.57,2.57,0,0,1-.56.81,2.86,2.86,0,0,1-1,.63,3.9,3.9,0,0,1-1.49.26,3.4,3.4,0,0,1-1.2-.21,3.48,3.48,0,0,1-1-.56,2.45,2.45,0,0,1-.67-.8,2.2,2.2,0,0,1-.25-1h1.73a.47.47,0,0,0,.1.24,1.15,1.15,0,0,0,.27.27,1.91,1.91,0,0,0,.43.21,1.62,1.62,0,0,0,.57.09,2,2,0,0,0,.81-.13,1.38,1.38,0,0,0,.44-.26.87.87,0,0,0,.22-.39,2.44,2.44,0,0,0,0-.27.54.54,0,0,0-.11-.26,1.07,1.07,0,0,0-.54-.3,3.73,3.73,0,0,0-1-.11,3.67,3.67,0,0,1-.78-.08,3.12,3.12,0,0,1-.61-.2,2.44,2.44,0,0,1-.45-.27,1.87,1.87,0,0,1-.32-.3,2.27,2.27,0,0,1-.39-.58,3.25,3.25,0,0,1-.19-.58,2.24,2.24,0,0,1-.06-.48c0-.13,0-.22,0-.28s0-.14,0-.26a2.13,2.13,0,0,1,.1-.4,2.73,2.73,0,0,1,.21-.47,2.08,2.08,0,0,1,.35-.48,3.12,3.12,0,0,1,2.31-.84,3,3,0,0,1,2.28.87,2.52,2.52,0,0,1,.44.62,2.82,2.82,0,0,1,.23.6,3.55,3.55,0,0,1,.08.47c0,.13,0,.21,0,.24l-1.73-.06a.84.84,0,0,0,0-.29.77.77,0,0,0-.18-.33.85.85,0,0,0-.4-.26,1.82,1.82,0,0,0-.68-.11,2.25,2.25,0,0,0-.65.08,1.12,1.12,0,0,0-.38.2.59.59,0,0,0-.17.24.63.63,0,0,0-.05.21v.08h0a2,2,0,0,0,0,.23l.06.2a.41.41,0,0,0,.12.2,1.2,1.2,0,0,0,.88.27,3.83,3.83,0,0,1,2.49.71,2.43,2.43,0,0,1,.88,2A2.22,2.22,0,0,1,51.27,131.37Zm3.31-1.65a2.63,2.63,0,0,0,.53.78,2.37,2.37,0,0,0,.78.54,2.35,2.35,0,0,0,1.69.08,2.46,2.46,0,0,0,1.16-.81,2.45,2.45,0,0,0,.36-.63L60.38,131a4.74,4.74,0,0,1-.66.82,4,4,0,0,1-.83.63,3.77,3.77,0,0,1-1,.41,3.91,3.91,0,0,1-1.08.15,4.07,4.07,0,0,1-1.63-.34,4,4,0,0,1-1.31-.91,4.27,4.27,0,0,1-.9-1.34,4.11,4.11,0,0,1-.33-1.64A4.16,4.16,0,0,1,53,127.1a4.27,4.27,0,0,1,.9-1.34,4.33,4.33,0,0,1,1.31-.91,4.06,4.06,0,0,1,1.63-.33,4.32,4.32,0,0,1,1.08.14,4.16,4.16,0,0,1,1,.41,4,4,0,0,1,.83.64,5.16,5.16,0,0,1,.66.82l-1.28,1.29a2.45,2.45,0,0,0-.36-.63,2.57,2.57,0,0,0-1.16-.82,2.65,2.65,0,0,0-.74-.11,2.34,2.34,0,0,0-1,.19,2.53,2.53,0,0,0-.78.54,2.67,2.67,0,0,0-.53.79,2.4,2.4,0,0,0-.19,1A2.47,2.47,0,0,0,54.58,129.72ZM67,133l-.44-1.25H63.15L62.71,133H60.83l3-8.46h2l3,8.46Zm8.86-2.93a2.33,2.33,0,0,1-.61.46,3.05,3.05,0,0,1-.59.24,1.65,1.65,0,0,1-.48.09l-.27,0H71.69V133H70v-8.47h4a2.93,2.93,0,0,1,.88.16,2.6,2.6,0,0,1,.89.52,2.85,2.85,0,0,1,.67.93,3.2,3.2,0,0,1,.28,1.41A3.34,3.34,0,0,1,75.81,130.06ZM84,126.28h-3.9V128H83.8v1.76H80.05v1.45H84V133H78.32v-8.45H84ZM92.23,133H90.5v-8.45h1.73Zm7.5-6.71H95.85v1.9h3.73v1.74H95.85V133H94.14v-8.45h5.59Zm10.36,4V133h-1.74v-2.65l-2.66-5.77h1.87l1.67,4.09,1.66-4.09h1.85Zm11.3.1a4.45,4.45,0,0,1-.9,1.34,4,4,0,0,1-1.32.91,4,4,0,0,1-1.62.34,4.05,4.05,0,0,1-1.62-.34,4.16,4.16,0,0,1-1.32-.91,4.42,4.42,0,0,1-.89-1.34,4.11,4.11,0,0,1-.33-1.64,4.16,4.16,0,0,1,.33-1.65,4.42,4.42,0,0,1,.89-1.34,4.51,4.51,0,0,1,1.32-.91,4,4,0,0,1,1.62-.33,4,4,0,0,1,1.62.33,4.38,4.38,0,0,1,1.32.91,4.45,4.45,0,0,1,.9,1.34,4.33,4.33,0,0,1,.32,1.65A4.28,4.28,0,0,1,121.39,130.39Zm8.35-1.25a4.08,4.08,0,0,1-.07.74,4,4,0,0,1-.22.84,4.26,4.26,0,0,1-.41.83,2.94,2.94,0,0,1-.63.73,2.8,2.8,0,0,1-.88.5,3.26,3.26,0,0,1-1.17.2h0a3.29,3.29,0,0,1-1.26-.24,2.77,2.77,0,0,1-1-.68,3,3,0,0,1-.63-.89,4.81,4.81,0,0,1-.33-.91,4,4,0,0,1-.12-.75c0-.21,0-.34,0-.38v-4.6h1.74v4.61c0,.06,0,.15,0,.27a2.3,2.3,0,0,0,.07.42,3.18,3.18,0,0,0,.15.47,1.82,1.82,0,0,0,.29.45,1.57,1.57,0,0,0,.46.34,1.69,1.69,0,0,0,.66.12,1.37,1.37,0,0,0,.91-.27,2.14,2.14,0,0,0,.49-.64,2.12,2.12,0,0,0,.2-.7,4.07,4.07,0,0,0,0-.47v-4.6h1.74Zm8,.58a2.8,2.8,0,0,0,.52.78,2.52,2.52,0,0,0,.79.54,2.33,2.33,0,0,0,.94.2,2.25,2.25,0,0,0,.74-.12,2.46,2.46,0,0,0,.65-.32,2.42,2.42,0,0,0,.52-.49,2.45,2.45,0,0,0,.36-.63l1.27,1.29a4.26,4.26,0,0,1-.65.82,4,4,0,0,1-.83.63,3.63,3.63,0,0,1-1,.41,4.07,4.07,0,0,1-4-1.1,4.27,4.27,0,0,1-.9-1.34,4.11,4.11,0,0,1-.33-1.64,4.16,4.16,0,0,1,.33-1.65,4.27,4.27,0,0,1,.9-1.34,4.33,4.33,0,0,1,1.31-.91,4,4,0,0,1,1.62-.33,4.46,4.46,0,0,1,1.09.14,4.1,4.1,0,0,1,1.8,1,4.59,4.59,0,0,1,.65.82l-1.27,1.29a2.45,2.45,0,0,0-.36-.63,2.42,2.42,0,0,0-.52-.49,2.49,2.49,0,0,0-.65-.33,2.55,2.55,0,0,0-.74-.11,2.32,2.32,0,0,0-.94.19,2.7,2.7,0,0,0-.79.54,2.85,2.85,0,0,0-.52.79,2.4,2.4,0,0,0-.19,1A2.47,2.47,0,0,0,137.79,129.72ZM150.16,133l-.44-1.25h-3.36l-.44,1.25H144l3-8.46h2l3,8.46Zm10.09,0H158.3l-3.6-5.49V133h-1.77v-8.47h2l3.59,5.48v-5.47h1.77Z"/><polygon class="cls-2" points="160.25 124.53 160.25 132.99 158.3 132.99 154.7 127.5 154.7 132.99 152.93 132.99 152.93 124.52 154.89 124.52 158.48 130 158.48 124.53 160.25 124.53"/><path class="cls-2" d="M149.06,124.53h-2L144,133h1.89l.44-1.25h3.36l.44,1.25H152ZM147,130l1.07-3,1.07,3Z"/><path class="cls-2" d="M142.31,129.68l1.27,1.29a4.26,4.26,0,0,1-.65.82,4,4,0,0,1-.83.63,3.63,3.63,0,0,1-1,.41,4.07,4.07,0,0,1-4-1.1,4.27,4.27,0,0,1-.9-1.34,4.11,4.11,0,0,1-.33-1.64,4.16,4.16,0,0,1,.33-1.65,4.27,4.27,0,0,1,.9-1.34,4.33,4.33,0,0,1,1.31-.91,4,4,0,0,1,1.62-.33,4.46,4.46,0,0,1,1.09.14,4.1,4.1,0,0,1,1.8,1,4.59,4.59,0,0,1,.65.82l-1.27,1.29a2.45,2.45,0,0,0-.36-.63,2.42,2.42,0,0,0-.52-.49,2.49,2.49,0,0,0-.65-.33,2.55,2.55,0,0,0-.74-.11,2.32,2.32,0,0,0-.94.19,2.7,2.7,0,0,0-.79.54,2.85,2.85,0,0,0-.52.79,2.4,2.4,0,0,0-.19,1,2.47,2.47,0,0,0,.19,1,2.8,2.8,0,0,0,.52.78,2.52,2.52,0,0,0,.79.54,2.33,2.33,0,0,0,.94.2,2.25,2.25,0,0,0,.74-.12,2.46,2.46,0,0,0,.65-.32,2.42,2.42,0,0,0,.52-.49A2.45,2.45,0,0,0,142.31,129.68Z"/><path class="cls-2" d="M129.74,124.53v4.61a4.08,4.08,0,0,1-.07.74,4,4,0,0,1-.22.84,4.26,4.26,0,0,1-.41.83,2.94,2.94,0,0,1-.63.73,2.8,2.8,0,0,1-.88.5,3.26,3.26,0,0,1-1.17.2h0a3.29,3.29,0,0,1-1.26-.24,2.77,2.77,0,0,1-1-.68,3,3,0,0,1-.63-.89,4.81,4.81,0,0,1-.33-.91,4,4,0,0,1-.12-.75c0-.21,0-.34,0-.38v-4.6h1.74v4.61c0,.06,0,.15,0,.27a2.3,2.3,0,0,0,.07.42,3.18,3.18,0,0,0,.15.47,1.82,1.82,0,0,0,.29.45,1.57,1.57,0,0,0,.46.34,1.69,1.69,0,0,0,.66.12,1.37,1.37,0,0,0,.91-.27,2.14,2.14,0,0,0,.49-.64,2.12,2.12,0,0,0,.2-.7,4.07,4.07,0,0,0,0-.47v-4.6Z"/><path class="cls-2" d="M121.39,127.1a4.45,4.45,0,0,0-.9-1.34,4.38,4.38,0,0,0-1.32-.91,4,4,0,0,0-1.62-.33,4,4,0,0,0-1.62.33,4.51,4.51,0,0,0-1.32.91,4.42,4.42,0,0,0-.89,1.34,4.16,4.16,0,0,0-.33,1.65,4.11,4.11,0,0,0,.33,1.64,4.42,4.42,0,0,0,.89,1.34,4.16,4.16,0,0,0,1.32.91,4.05,4.05,0,0,0,1.62.34,4,4,0,0,0,1.62-.34,4,4,0,0,0,1.32-.91,4.45,4.45,0,0,0,.9-1.34,4.28,4.28,0,0,0,.32-1.64A4.33,4.33,0,0,0,121.39,127.1Zm-1.59,2.62a2.51,2.51,0,0,1-1.3,1.32,2.38,2.38,0,0,1-1,.2,2.31,2.31,0,0,1-1-.2,2.23,2.23,0,0,1-.77-.54,2.41,2.41,0,0,1-.72-1.75,2.4,2.4,0,0,1,.19-1,2.49,2.49,0,0,1,.53-.79,2.37,2.37,0,0,1,.77-.54,2.3,2.3,0,0,1,1-.19,2.37,2.37,0,0,1,1,.19,2.79,2.79,0,0,1,.78.54,2.64,2.64,0,0,1,.52.79,2.25,2.25,0,0,1,.2,1A2.31,2.31,0,0,1,119.8,129.72Z"/><polygon class="cls-2" points="112.74 124.54 110.09 130.29 110.09 132.96 108.35 132.96 108.35 130.31 105.69 124.54 107.56 124.54 109.23 128.63 110.89 124.54 112.74 124.54"/><polygon class="cls-2" points="95.85 126.28 95.85 128.18 99.58 128.18 99.58 129.92 95.85 129.92 95.85 132.99 94.14 132.99 94.14 124.54 99.73 124.54 99.73 126.28 95.85 126.28"/><rect class="cls-2" x="90.5" y="124.54" width="1.73" height="8.45"/><polygon class="cls-2" points="80.05 126.28 80.05 128 83.8 128 83.8 129.76 80.05 129.76 80.05 131.21 83.95 131.21 83.95 132.98 78.32 132.98 78.32 124.53 83.95 124.53 83.95 126.28 80.05 126.28"/><polygon class="cls-2" points="159.69 115.79 159.69 118.76 38.05 117.83 38.05 117.28 159.69 115.79"/><path class="cls-2" d="M76.46,126.13a2.85,2.85,0,0,0-.67-.93,2.6,2.6,0,0,0-.89-.52,2.93,2.93,0,0,0-.88-.16H70V133h1.72v-2.12h2.17l.27,0a1.65,1.65,0,0,0,.48-.09,3.05,3.05,0,0,0,.59-.24,2.33,2.33,0,0,0,.61-.46,3.34,3.34,0,0,0,.93-2.52A3.2,3.2,0,0,0,76.46,126.13Zm-1.58,2.26a1.37,1.37,0,0,1-.31.48.82.82,0,0,1-.37.21,1.48,1.48,0,0,1-.32,0H71.69v-2.86H74a1.32,1.32,0,0,1,.31,0,.92.92,0,0,1,.33.19.84.84,0,0,1,.25.38,1.49,1.49,0,0,1,.11.65A2.41,2.41,0,0,1,74.88,128.39Z"/><path class="cls-2" d="M59.1,129.68,60.38,131a4.74,4.74,0,0,1-.66.82,4,4,0,0,1-.83.63,3.77,3.77,0,0,1-1,.41,3.91,3.91,0,0,1-1.08.15,4.07,4.07,0,0,1-1.63-.34,4,4,0,0,1-1.31-.91,4.27,4.27,0,0,1-.9-1.34,4.11,4.11,0,0,1-.33-1.64A4.16,4.16,0,0,1,53,127.1a4.27,4.27,0,0,1,.9-1.34,4.33,4.33,0,0,1,1.31-.91,4.06,4.06,0,0,1,1.63-.33,4.32,4.32,0,0,1,1.08.14,4.16,4.16,0,0,1,1,.41,4,4,0,0,1,.83.64,5.16,5.16,0,0,1,.66.82l-1.28,1.29a2.45,2.45,0,0,0-.36-.63,2.57,2.57,0,0,0-1.16-.82,2.65,2.65,0,0,0-.74-.11,2.34,2.34,0,0,0-1,.19,2.53,2.53,0,0,0-.78.54,2.67,2.67,0,0,0-.53.79,2.4,2.4,0,0,0-.19,1,2.47,2.47,0,0,0,.19,1,2.63,2.63,0,0,0,.53.78,2.37,2.37,0,0,0,.78.54,2.35,2.35,0,0,0,1.69.08,2.46,2.46,0,0,0,1.16-.81A2.45,2.45,0,0,0,59.1,129.68Z"/><path class="cls-2" d="M65.86,124.53h-2l-3,8.46h1.88l.44-1.25h3.36L67,133h1.88ZM63.76,130l1.07-3,1.07,3Z"/><path class="cls-2" d="M51.45,130.55a2.22,2.22,0,0,1-.18.82,2.57,2.57,0,0,1-.56.81,2.86,2.86,0,0,1-1,.63,3.9,3.9,0,0,1-1.49.26,3.4,3.4,0,0,1-1.2-.21,3.48,3.48,0,0,1-1-.56,2.45,2.45,0,0,1-.67-.8,2.2,2.2,0,0,1-.25-1h1.73a.47.47,0,0,0,.1.24,1.15,1.15,0,0,0,.27.27,1.91,1.91,0,0,0,.43.21,1.62,1.62,0,0,0,.57.09,2,2,0,0,0,.81-.13,1.38,1.38,0,0,0,.44-.26.87.87,0,0,0,.22-.39,2.44,2.44,0,0,0,0-.27.54.54,0,0,0-.11-.26,1.07,1.07,0,0,0-.54-.3,3.73,3.73,0,0,0-1-.11,3.67,3.67,0,0,1-.78-.08,3.12,3.12,0,0,1-.61-.2,2.44,2.44,0,0,1-.45-.27,1.87,1.87,0,0,1-.32-.3,2.27,2.27,0,0,1-.39-.58,3.25,3.25,0,0,1-.19-.58,2.24,2.24,0,0,1-.06-.48c0-.13,0-.22,0-.28s0-.14,0-.26a2.13,2.13,0,0,1,.1-.4,2.73,2.73,0,0,1,.21-.47,2.08,2.08,0,0,1,.35-.48,3.12,3.12,0,0,1,2.31-.84,3,3,0,0,1,2.28.87,2.52,2.52,0,0,1,.44.62,2.82,2.82,0,0,1,.23.6,3.55,3.55,0,0,1,.08.47c0,.13,0,.21,0,.24l-1.73-.06a.84.84,0,0,0,0-.29.77.77,0,0,0-.18-.33.85.85,0,0,0-.4-.26,1.82,1.82,0,0,0-.68-.11,2.25,2.25,0,0,0-.65.08,1.12,1.12,0,0,0-.38.2.59.59,0,0,0-.17.24.63.63,0,0,0-.05.21v.08h0a2,2,0,0,0,0,.23l.06.2a.41.41,0,0,0,.12.2,1.2,1.2,0,0,0,.88.27,3.83,3.83,0,0,1,2.49.71A2.43,2.43,0,0,1,51.45,130.55Z"/><polygon class="cls-2" points="39.7 126.28 39.7 128 43.45 128 43.45 129.76 39.7 129.76 39.7 131.21 43.6 131.21 43.6 132.98 37.97 132.98 37.97 124.53 43.6 124.53 43.6 126.28 39.7 126.28"/><path class="cls-2" d="M89.33,72.88H76.67l-9.61,37.23H77.72L78.94,104h8.15l1.26,6.09H99ZM79.14,97.93l2-6.8.5-1.64a3.24,3.24,0,0,1-1.83-2.93,3.16,3.16,0,1,1,4.78,2.7l.52,1.87,2,6.8Z"/><polygon class="cls-2" points="146.89 83.42 146.89 86.67 157.73 86.67 157.73 96.37 146.89 96.37 146.89 99.8 159.27 99.8 159.27 110.23 136.55 110.23 136.55 72.93 159.27 72.93 159.27 83.42 146.89 83.42"/><polygon class="cls-2" points="131.84 72.85 131.84 110.23 121.95 110.23 121.95 91.15 116.41 103.09 116.17 103.09 110.67 91.15 110.67 110.23 100.77 110.23 100.77 72.85 111.44 72.85 116.29 85.06 121.18 72.85 131.84 72.85"/><path class="cls-2" d="M66,89.8v18.35a21.68,21.68,0,0,1-11.44,2.78c-8.92,0-15.63-6.91-15.63-19C39,80.06,45.66,72.7,55.07,72.7a26.06,26.06,0,0,1,9.77,1.74L63.5,84.57a16.65,16.65,0,0,0-6.36-1.3c-5.41,0-7.4,3.43-7.4,8.65,0,5.83,3.13,8.44,6.06,8.44a5.58,5.58,0,0,0,1-.1V89.8Z"/><polygon class="cls-2" points="117.71 54 117.71 55.53 124.47 55.53 124.47 60.05 117.71 60.05 117.71 61.65 125.43 61.65 125.43 66.51 111.26 66.51 111.26 49.11 125.43 49.11 125.43 54 117.71 54"/><polygon class="cls-2" points="108.32 49.11 108.32 66.51 101.74 66.51 101.74 60.05 97.47 60.05 97.47 66.51 90.89 66.51 90.89 49.11 97.47 49.11 97.47 55.37 101.74 55.37 101.74 49.11 108.32 49.11"/><polygon class="cls-2" points="89.17 49.11 89.17 54.08 84.29 54.08 84.29 66.51 77.66 66.51 77.66 54.08 72.79 54.08 72.79 49.11 89.17 49.11"/><path class="cls-1" d="M120,128.75a2.31,2.31,0,0,1-.2,1,2.51,2.51,0,0,1-1.3,1.32,2.38,2.38,0,0,1-1,.2,2.31,2.31,0,0,1-1-.2,2.23,2.23,0,0,1-.77-.54,2.41,2.41,0,0,1-.72-1.75,2.4,2.4,0,0,1,.19-1,2.49,2.49,0,0,1,.53-.79,2.37,2.37,0,0,1,.77-.54,2.3,2.3,0,0,1,1-.19,2.37,2.37,0,0,1,1,.19,2.79,2.79,0,0,1,.78.54,2.64,2.64,0,0,1,.52.79A2.25,2.25,0,0,1,120,128.75Z"/><polygon class="cls-1" points="65.9 130 63.76 130 64.83 126.97 65.9 130"/><polygon class="cls-2" points="75.91 180.23 72.06 180.23 17.36 125.53 17.36 121.68 75.91 180.23"/><polygon class="cls-2" points="182.63 118.59 182.63 122.43 124.84 180.23 120.99 180.23 182.63 118.59"/><path class="cls-1" d="M124.84,180.23l-15.12,15.12a16,16,0,0,1-22.55,0L72.06,180.23h3.85l13.18,13.19a13.27,13.27,0,0,0,18.71,0L121,180.23Z"/><polygon class="cls-2" points="79 19.77 17.36 81.42 17.36 77.56 75.15 19.77 79 19.77"/><polygon class="cls-2" points="182.63 74.47 182.63 78.32 124.09 19.77 127.93 19.77 182.63 74.47"/><path class="cls-1" d="M127.93,19.77h-3.84L110.89,6.58a13.27,13.27,0,0,0-18.7,0L79,19.77H75.15L90.26,4.65a16,16,0,0,1,22.56,0Z"/><path class="cls-1" d="M87.08,97.93H79.14l2-6.8.5-1.64a3.24,3.24,0,0,1-1.83-2.93,3.16,3.16,0,1,1,4.78,2.7l.52,1.87Z"/></g></g></svg>